<?xml version="1.0" encoding="UTF-8"?>
<svg version="1.1" xmlns="http://www.w3.org/2000/svg" width="500" height="500">
<path d="M0 0 C165 0 330 0 500 0 C500 165 500 330 500 500 C335 500 170 500 0 500 C0 335 0 170 0 0 Z " fill="#FEFEFE" transform="translate(0,0)"/>
<path d="M0 0 C1.69627064 3.04458832 2.47271747 5.77691349 3.0703125 9.203125 C3.33134766 10.67265625 3.33134766 10.67265625 3.59765625 12.171875 C3.85869141 13.69554687 3.85869141 13.69554687 4.125 15.25 C4.30675781 16.28125 4.48851562 17.3125 4.67578125 18.375 C5.12276428 20.91574567 5.56395534 23.45735822 6 26 C3.77737399 23.80946269 1.79000614 21.53934241 -0.1875 19.125 C-5.59436504 12.90653365 -12.46090059 8.40285093 -20.78515625 7.6640625 C-35.59238918 7.34746902 -46.72587468 10.64577779 -57.9296875 20.73828125 C-71.4273226 34.745827 -74.6123304 54.34565901 -74.40258789 72.97607422 C-73.70432286 97.91976261 -67.16475582 121.87790853 -48.57714844 139.61132812 C-29.71538749 156.21902105 -7.07040369 158.91522447 17 158 C21.4123653 157.60378761 25.66776765 156.91322122 30 156 C31.25039063 155.74734375 32.50078125 155.4946875 33.7890625 155.234375 C40.46250368 153.87485813 40.46250368 153.87485813 47 152 C46.52691406 151.25878906 46.05382812 150.51757812 45.56640625 149.75390625 C41.58821998 143.41827626 37.92145924 137.02849769 34.5 130.375 C28.40610204 118.65566432 21.37604692 106.25544525 8.30078125 101.60693359 C4.08457538 100.49472139 -0.16002553 100.42289179 -4.5 100.3125 C-5.4178125 100.27833984 -6.335625 100.24417969 -7.28125 100.20898438 C-9.5207109 100.12733736 -11.7598215 100.05792462 -14 100 C-13.93064163 104.41134531 -13.8424493 108.82181207 -13.73754883 113.23242188 C-13.70450134 114.72971472 -13.67640798 116.2271261 -13.65356445 117.72460938 C-13.78186684 131.51375807 -13.78186684 131.51375807 -7 143 C-15.91 143 -24.82 143 -34 143 C-32.02 141.02 -32.02 141.02 -30 139 C-27.73149016 134.04782856 -27.70921185 129.39887171 -27.7253418 124.06054688 C-27.72023087 123.18173355 -27.71511993 122.30292023 -27.70985413 121.3974762 C-27.69600087 118.50449741 -27.69691143 115.61175793 -27.69921875 112.71875 C-27.69532999 110.70145581 -27.69099495 108.68416244 -27.68623352 106.66687012 C-27.67878087 102.44373924 -27.67905606 98.22069198 -27.68432617 93.99755859 C-27.69012504 88.59047127 -27.67317499 83.18372602 -27.6499815 77.77669525 C-27.63523961 73.61250819 -27.63437299 69.44840348 -27.63749123 65.28419495 C-27.63697843 63.29072898 -27.63174846 61.29725835 -27.62167931 59.30381775 C-27.60932101 56.51547071 -27.61610256 53.72778977 -27.62768555 50.93945312 C-27.62004181 50.11953384 -27.61239807 49.29961456 -27.60452271 48.45484924 C-27.64930925 43.56861456 -28.32236966 40.24596066 -31 36 C-33.04946399 34.14684743 -33.04946399 34.14684743 -35 33 C-28.72359697 32.90001441 -22.44767258 32.82801105 -16.1706543 32.78027344 C-14.04199126 32.76034183 -11.91338163 32.73318647 -9.78491211 32.69824219 C6.21359152 32.44244669 22.92486562 32.24617571 36 43 C43.99806961 51.44572276 45.50569747 58.56007847 45.234375 69.8984375 C44.83614893 78.6086567 41.51089566 83.39876942 35.5390625 89.73046875 C31.73654618 93.12933334 27.72133749 95.15497221 23 97 C21.906875 97.433125 20.81375 97.86625 19.6875 98.3125 C17.00576924 98.99852415 14.75519517 99.1620703 12 99 C12 99.66 12 100.32 12 101 C12.89203125 101.24878906 13.7840625 101.49757813 14.703125 101.75390625 C28.02246684 106.78811246 38.35912563 123.1247995 46.27075195 134.45483398 C47.81817716 136.65936165 49.40003717 138.83335322 51 141 C51.55123535 141.7741626 52.1024707 142.5483252 52.67041016 143.34594727 C54.33597181 145.50230951 55.85998243 147.31227911 58 149 C61.29940395 149.31750217 62.928858 149.28321819 66 148.5625 C66.67289063 148.43939453 67.34578125 148.31628906 68.0390625 148.18945312 C69.38537995 147.94124209 70.72891667 147.67743093 72.0690918 147.39794922 C84.89715837 144.75415752 98.55923449 144.78481608 111 149 C112.54880859 149.49306641 112.54880859 149.49306641 114.12890625 149.99609375 C120.42512743 152.1857543 126.02176949 154.99760315 131.625 158.5625 C132.51324463 159.12638428 132.51324463 159.12638428 133.41943359 159.70166016 C136.57880845 161.79537649 138.95182188 163.79699805 141 167 C137.41598828 165.65117839 134.20770462 164.00025362 130.875 162.125 C111.27952811 152.43414845 88.19088847 153.74130184 67 156 C67 156.66 67 157.32 67 158 C69.26796012 159.75959228 69.26796012 159.75959228 72.125 161.5 C73.07632813 162.1084375 74.02765625 162.716875 75.0078125 163.34375 C81.20431169 166.773666 86.60903815 167.41645879 93.5625 167.4375 C94.88399048 167.44330078 94.88399048 167.44330078 96.23217773 167.44921875 C103.11832335 167.32850845 108.30063475 166.02701104 114.56640625 163.09375 C117 162 117 162 120 162 C120 162.66 120 163.32 120 164 C108.00322993 170.47754597 97.61715885 174.19555746 83.8125 174.4375 C82.98089355 174.45997803 82.14928711 174.48245605 81.29248047 174.50561523 C73.47145385 174.4753493 66.91257888 171.89878473 60.75 167.0625 C60.14671875 166.59972656 59.5434375 166.13695312 58.921875 165.66015625 C57 164 57 164 54.75390625 161.30078125 C51.68658992 158.7381581 50.1902686 158.53461723 46.26367188 158.8671875 C45.2359668 158.99480469 45.2359668 158.99480469 44.1875 159.125 C43.51396484 159.186875 42.84042969 159.24875 42.14648438 159.3125 C38.83733607 159.62916491 35.55196892 160.0617742 32.25854492 160.51586914 C28.08531554 161.03604914 23.96028516 161.19465481 19.7578125 161.23828125 C18.99056854 161.246353 18.22332458 161.25442474 17.43283081 161.26274109 C15.8142923 161.2764867 14.19572596 161.28725082 12.57714844 161.29516602 C10.9601968 161.30659608 9.34328015 161.32690262 7.7265625 161.35668945 C-20.25307353 161.86984056 -46.2082897 153.12981631 -66.625 133.47265625 C-83.13934958 116.32894883 -91.02805446 93.35850193 -91.4375 69.8125 C-90.99887336 52.09198388 -83.8572814 35.99891925 -71.55859375 23.36328125 C-55.71861211 8.73245851 -37.45185376 4.54662363 -16.45996094 4.56420898 C-14.48362495 4.56064416 -12.50738064 4.53261757 -10.53125 4.50390625 C-8.79198242 4.50112671 -8.79198242 4.50112671 -7.01757812 4.49829102 C-3.4211388 3.90441297 -2.25505247 2.78872517 0 0 Z " fill="#4161C7" transform="translate(245,127)"/>
<path d="M0 0 C29.8125 0 29.8125 0 38.5703125 8.296875 C45.68163551 16.76828711 46.92433389 27.33549779 46 38 C44.41264765 45.09799034 41.38440882 51.97986408 36 57 C23.55969427 64.78246895 16.8584337 63 0 63 C0 42.21 0 21.42 0 0 Z " fill="#FBFCFE" transform="translate(231,162)"/>
<path d="M0 0 C13.53 0 27.06 0 41 0 C40.67 0.66 40.34 1.32 40 2 C29.11 1.505 29.11 1.505 18 1 C18.06297754 13.50921824 18.13843866 26.01819169 18.23571491 38.52719116 C18.28039134 44.33598435 18.31965368 50.14470784 18.34643555 55.95361328 C18.37249543 61.56232971 18.41291734 67.17077753 18.46318626 72.77932739 C18.47983673 74.91623588 18.49136231 77.05319081 18.49761391 79.19015503 C18.50727461 82.18955465 18.53535814 85.1882699 18.56762695 88.1875 C18.56547432 89.50488914 18.56547432 89.50488914 18.5632782 90.84889221 C18.67204834 98.02470766 19.74028821 103.74028821 25 109 C16.09 109 7.18 109 -2 109 C-0.68 107.68 0.64 106.36 2 105 C4.25992582 100.05895619 4.29643764 95.41834862 4.29052734 90.09228516 C4.29724457 89.21668442 4.30396179 88.34108368 4.31088257 87.43894958 C4.32981992 84.55559555 4.33378451 81.67247479 4.3359375 78.7890625 C4.34236801 76.77655951 4.34909656 74.76405744 4.35610962 72.7515564 C4.36807145 68.53682285 4.37179153 64.3221712 4.37060547 60.10742188 C4.37040226 54.71838322 4.39771171 49.32987177 4.43214989 43.94095802 C4.45443381 39.78526416 4.45844256 35.62969692 4.45738602 31.47394943 C4.45973944 29.48770708 4.46854831 27.50146111 4.48405075 25.51527786 C4.50374237 22.73198193 4.49786047 19.9498198 4.48583984 17.16650391 C4.49707886 16.35377518 4.50831787 15.54104645 4.51989746 14.70368958 C4.45003045 8.30733539 3.1502371 6.3004742 0 0 Z " fill="#3B5CC6" transform="translate(213,161)"/>
<path d="M0 0 C3.15513357 2.07951985 4.88159747 3.50686475 6.75 6.8125 C7.6103489 11.56197709 7.22784714 14.89093765 5 19.1875 C2.28230376 22.35814561 0.3780291 24.53952231 -3.8359375 25.24609375 C-9.78235226 25.25442206 -13.67167576 25.03864545 -18.25 20.8125 C-20.96849462 16.37606781 -21.03969114 11.86971394 -20.25 6.8125 C-18.61806097 3.62664293 -16.28461525 1.59738054 -13.4375 -0.5625 C-8.63065912 -1.93588311 -4.6064147 -1.68311307 0 0 Z " fill="#FAFBFD" transform="translate(294.25,317.1875)"/>
<path d="M0 0 C17.73709411 -0.6163469 17.73709411 -0.6163469 23.51953125 4.2890625 C26.11152928 6.95960593 26.98425241 8.88779844 27.5 12.5625 C26.77662808 17.53568197 25.20787701 19.91291069 21.5 23.25 C17.060247 26.3578271 13.02453874 26.12167599 7.8125 26.0625 C7.06291016 26.05798828 6.31332031 26.05347656 5.54101562 26.04882812 C3.69397617 26.03706354 1.84697787 26.01912865 0 26 C0.99 25.67 1.98 25.34 3 25 C3 17.41 3 9.82 3 2 C2.01 2 1.02 2 0 2 C0 1.34 0 0.68 0 0 Z " fill="#F6F7FC" transform="translate(243,316)"/>
<path d="M0 0 C1.69627064 3.04458832 2.47271747 5.77691349 3.0703125 9.203125 C3.24433594 10.1828125 3.41835937 11.1625 3.59765625 12.171875 C3.77167969 13.18765625 3.94570312 14.2034375 4.125 15.25 C4.30675781 16.28125 4.48851562 17.3125 4.67578125 18.375 C5.12276428 20.91574567 5.56395534 23.45735822 6 26 C3.77737399 23.80946269 1.79000614 21.53934241 -0.1875 19.125 C-5.59464829 12.90620788 -12.48033503 8.35584274 -20.8203125 7.69921875 C-22.25509291 7.68060466 -23.69013514 7.67729538 -25.125 7.6875 C-25.87257568 7.68878906 -26.62015137 7.69007813 -27.39038086 7.69140625 C-33.57878136 7.79790771 -39.16655836 8.88333003 -45 11 C-45.33 10.01 -45.66 9.02 -46 8 C-36.09717491 4.94895354 -26.76683473 4.5555747 -16.45996094 4.56420898 C-14.48362495 4.56064416 -12.50738064 4.53261757 -10.53125 4.50390625 C-8.79198242 4.50112671 -8.79198242 4.50112671 -7.01757812 4.49829102 C-3.4211388 3.90441297 -2.25505247 2.78872517 0 0 Z " fill="#4867C9" transform="translate(245,127)"/>
<path d="M0 0 C1.65 0 3.3 0 5 0 C5 3.96 5 7.92 5 12 C7.31 11.34 9.62 10.68 12 10 C12.46522293 5.20691658 12.46522293 5.20691658 10.5 1.0625 C10.005 0.711875 9.51 0.36125 9 0 C11.60623142 0.35219343 13.60789115 0.76473469 15.875 2.125 C17.70914844 5.18191406 16.80263105 7.6659941 16 11 C15.01 11.495 15.01 11.495 14 12 C15.45252524 16.11548818 17.53005531 19.41459641 20 23 C20.33 23.66 20.66 24.32 21 25 C18.875 25 18.875 25 16 24 C10 17.60655738 10 17.60655738 10 14 C8.35 14 6.7 14 5 14 C5 17.3 5 20.6 5 24 C6.32 24.33 7.64 24.66 9 25 C5.37 25 1.74 25 -2 25 C-1.34 24.34 -0.68 23.68 0 23 C0.27787668 20.57402049 0.27787668 20.57402049 0.1953125 17.7734375 C0.18886719 16.7421875 0.18242187 15.7109375 0.17578125 14.6484375 C0.15902344 13.56820313 0.14226562 12.48796875 0.125 11.375 C0.11597656 10.28703125 0.10695313 9.1990625 0.09765625 8.078125 C0.07403409 5.38519848 0.04109556 2.69270745 0 0 Z " fill="#526FCC" transform="translate(375,317)"/>
<path d="M0 0 C1.65 0 3.3 0 5 0 C5 3.96 5 7.92 5 12 C7.31 11.34 9.62 10.68 12 10 C12.46522293 5.20691658 12.46522293 5.20691658 10.5 1.0625 C10.005 0.711875 9.51 0.36125 9 0 C11.60623142 0.35219343 13.60789115 0.76473469 15.875 2.125 C17.70914844 5.18191406 16.80263105 7.6659941 16 11 C15.01 11.495 15.01 11.495 14 12 C15.45252524 16.11548818 17.53005531 19.41459641 20 23 C20.33 23.66 20.66 24.32 21 25 C18.875 25 18.875 25 16 24 C10 17.60655738 10 17.60655738 10 14 C8.35 14 6.7 14 5 14 C5 17.3 5 20.6 5 24 C6.32 24.33 7.64 24.66 9 25 C5.37 25 1.74 25 -2 25 C-1.34 24.34 -0.68 23.68 0 23 C0.27787668 20.57402049 0.27787668 20.57402049 0.1953125 17.7734375 C0.18886719 16.7421875 0.18242188 15.7109375 0.17578125 14.6484375 C0.15902344 13.56820313 0.14226562 12.48796875 0.125 11.375 C0.11597656 10.28703125 0.10695313 9.1990625 0.09765625 8.078125 C0.07403409 5.38519848 0.04109556 2.69270745 0 0 Z " fill="#526FCC" transform="translate(106,317)"/>
<path d="M0 0 C1.65 0 3.3 0 5 0 C6.33852796 3.62310328 7.66993718 7.24878144 9 10.875 C9.3815625 11.90753906 9.763125 12.94007813 10.15625 14.00390625 C10.5171875 14.99003906 10.878125 15.97617187 11.25 16.9921875 C11.58515625 17.90339355 11.9203125 18.81459961 12.265625 19.75341797 C13 22 13 22 13 24 C13.66 24.33 14.32 24.66 15 25 C11.7 25 8.4 25 5 25 C5.99 24.34 6.98 23.68 8 23 C7.34 20.03 6.68 17.06 6 14 C3.36 14 0.72 14 -2 14 C-2.66 17.3 -3.32 20.6 -4 24 C-3.01 24.33 -2.02 24.66 -1 25 C-3.97 25 -6.94 25 -10 25 C-9.54262451 24.44280273 -9.08524902 23.88560547 -8.61401367 23.31152344 C-6.92468849 20.89214198 -6.08052608 18.81521277 -5.17578125 16.015625 C-4.86962891 15.08105469 -4.56347656 14.14648438 -4.24804688 13.18359375 C-3.78495117 11.73146484 -3.78495117 11.73146484 -3.3125 10.25 C-2.99216797 9.26644531 -2.67183594 8.28289062 -2.34179688 7.26953125 C-1.55436594 4.84847494 -0.77404508 2.42536241 0 0 Z " fill="#4F6CCB" transform="translate(356,317)"/>
<path d="M0 0 C1.98 0 3.96 0 6 0 C5.67 3.63 5.34 7.26 5 11 C9.95 11 14.9 11 20 11 C20 7.7 20 4.4 20 1 C19.34 0.67 18.68 0.34 18 0 C20.31 0 22.62 0 25 0 C24.01 0.495 24.01 0.495 23 1 C23.08060591 4.62592996 23.19346817 8.25014402 23.3125 11.875 C23.33505859 12.90753906 23.35761719 13.94007813 23.38085938 15.00390625 C23.4340332 16.48310547 23.4340332 16.48310547 23.48828125 17.9921875 C23.51446533 18.90339355 23.54064941 19.81459961 23.56762695 20.75341797 C23.71031006 21.49479004 23.85299316 22.23616211 24 23 C24.99 23.66 25.98 24.32 27 25 C23.04 25 19.08 25 15 25 C16.32 24.34 17.64 23.68 19 23 C19.70176588 20.58320293 19.70176588 20.58320293 19.75 17.875 C19.8325 16.26625 19.915 14.6575 20 13 C15.05 13 10.1 13 5 13 C5.12375 14.60875 5.2475 16.2175 5.375 17.875 C5.44460937 18.77992188 5.51421875 19.68484375 5.5859375 20.6171875 C5.79568132 23.17941903 5.79568132 23.17941903 8 25 C4.7 25 1.4 25 -2 25 C-1.01 24.34 -0.02 23.68 1 23 C1.43199491 20.80905414 1.43199491 20.80905414 1.328125 18.28125 C1.32296875 17.34925781 1.3178125 16.41726563 1.3125 15.45703125 C1.291875 14.48121094 1.27125 13.50539063 1.25 12.5 C1.24484375 11.52417969 1.2396875 10.54835938 1.234375 9.54296875 C1.36713897 4.60982441 1.36713897 4.60982441 0 0 Z " fill="#4867C9" transform="translate(157,317)"/>
<path d="M0 0 C1.32 0 2.64 0 4 0 C4.2266333 0.65073486 4.4532666 1.30146973 4.68676758 1.97192383 C5.7198004 4.92197907 6.7659764 7.86720503 7.8125 10.8125 C8.16892578 11.83666016 8.52535156 12.86082031 8.89257812 13.91601562 C9.24384766 14.89892578 9.59511719 15.88183594 9.95703125 16.89453125 C10.27647705 17.80050049 10.59592285 18.70646973 10.92504883 19.63989258 C11.98746136 22.33786978 11.98746136 22.33786978 15 25 C11.37 25 7.74 25 4 25 C5.32 24.67 6.64 24.34 8 24 C7.01 21.03 6.02 18.06 5 15 C2.36 14.67 -0.28 14.34 -3 14 C-3.66 17.3 -4.32 20.6 -5 24 C-4.01 24.33 -3.02 24.66 -2 25 C-4.97 25 -7.94 25 -11 25 C-10.01 24.01 -9.02 23.02 -8 22 C-6.97660884 19.71965225 -6.97660884 19.71965225 -6.2109375 17.1484375 C-5.90929687 16.21515625 -5.60765625 15.281875 -5.296875 14.3203125 C-4.99265625 13.34835937 -4.6884375 12.37640625 -4.375 11.375 C-3.76029465 9.44452037 -3.14323448 7.51478844 -2.5234375 5.5859375 C-2.1200415 4.30275635 -2.1200415 4.30275635 -1.70849609 2.99365234 C-1 1 -1 1 0 0 Z " fill="#4766C9" transform="translate(196,317)"/>
<path d="M0 0 C2.36450195 0.19750977 2.36450195 0.19750977 5 1 C6.27026367 3.10131836 6.27026367 3.10131836 7.16796875 5.83984375 C7.50376953 6.82017578 7.83957031 7.80050781 8.18554688 8.81054688 C8.51619141 9.84244141 8.84683594 10.87433594 9.1875 11.9375 C9.86382033 13.96900835 10.54460074 15.99903893 11.23046875 18.02734375 C11.52332764 18.93218506 11.81618652 19.83702637 12.11791992 20.76928711 C12.89064608 23.15567731 12.89064608 23.15567731 15 25 C11.37 25 7.74 25 4 25 C5.32 24.67 6.64 24.34 8 24 C7.34 20.7 6.68 17.4 6 14 C3.03 14 0.06 14 -3 14 C-3.66 17.3 -4.32 20.6 -5 24 C-3.68 24.33 -2.36 24.66 -1 25 C-3.97 25 -6.94 25 -10 25 C-9.34 24.67 -8.68 24.34 -8 24 C-7.26063937 22.12923537 -7.26063937 22.12923537 -6.6875 19.8125 C-4.79369288 13.08655615 -2.39187075 6.56109999 0 0 Z " fill="#4A68CA" transform="translate(139,317)"/>
<path d="M0 0 C3.15513357 2.07951985 4.88159747 3.50686475 6.75 6.8125 C7.6103489 11.56197709 7.22784714 14.89093765 5 19.1875 C2.28230376 22.35814561 0.3780291 24.53952231 -3.8359375 25.24609375 C-9.78235226 25.25442206 -13.67167576 25.03864545 -18.25 20.8125 C-20.96849462 16.37606781 -21.03969114 11.86971394 -20.25 6.8125 C-18.61806097 3.62664293 -16.28461525 1.59738054 -13.4375 -0.5625 C-8.63065912 -1.93588311 -4.6064147 -1.68311307 0 0 Z M-14.75 3.1875 C-17.18531023 7.44929291 -17.66001462 9.8103216 -17.25 14.8125 C-15.65398686 18.74722545 -13.83734975 21.4209335 -10.25 23.8125 C-6.03821757 24.28047583 -3.96400886 24.27815795 -0.375 21.9375 C2.78371908 18.77878092 2.95006861 16.87298933 3.0625 12.5 C3.03696011 8.60261267 2.92420634 7.1028439 0.875 3.6875 C-2.70006852 0.53302778 -5.41562857 0.42329182 -10.0546875 0.453125 C-12.54836636 0.64998768 -12.54836636 0.64998768 -14.75 3.1875 Z " fill="#5672CD" transform="translate(294.25,317.1875)"/>
<path d="M0 0 C2.64 0 5.28 0 8 0 C7.97905273 0.59014893 7.95810547 1.18029785 7.93652344 1.78833008 C7.85336317 4.46287999 7.80134309 7.13715815 7.75 9.8125 C7.71648437 10.74126953 7.68296875 11.67003906 7.6484375 12.62695312 C7.63554687 13.51962891 7.62265625 14.41230469 7.609375 15.33203125 C7.58842773 16.15421143 7.56748047 16.9763916 7.54589844 17.82348633 C7.81982719 20.1590038 7.81982719 20.1590038 9.83691406 21.76831055 C12.76880487 23.43776756 14.67451795 23.41568526 18 23 C20.30963324 22.18820809 20.30963324 22.18820809 22 20 C22.65394278 16.78297343 22.69729015 13.5876981 22.75 10.3125 C22.77964844 9.41982422 22.80929687 8.52714844 22.83984375 7.60742188 C22.91051427 5.40485723 22.96321939 3.20334869 23 1 C22.01 0.67 21.02 0.34 20 0 C22.31 0 24.62 0 27 0 C26.67 0.66 26.34 1.32 26 2 C25.86657778 5.75435296 25.75209017 9.50300617 25.74609375 13.25976562 C25.61368116 17.51439114 25.36252549 19.50144724 22.79296875 23.03515625 C19.72207364 25.19552022 18.27391813 25.67764423 14.5625 25.625 C13.65628906 25.63789063 12.75007813 25.65078125 11.81640625 25.6640625 C7.96549057 24.75607961 5.22960038 23.26205604 3 20 C2.28566314 16.69319873 2.42938477 13.55057724 2.625 10.1875 C2.65207031 9.30384766 2.67914063 8.42019531 2.70703125 7.50976562 C2.77744131 5.33878886 2.88505394 3.16907471 3 1 C2.01 0.67 1.02 0.34 0 0 Z " fill="#5874CE" transform="translate(304,317)"/>
<path d="M0 0 C5.61 0 11.22 0 17 0 C17 1.65 17 3.3 17 5 C16.67 4.01 16.34 3.02 16 2 C12.7 2 9.4 2 6 2 C6 4.64 6 7.28 6 10 C9.3 10 12.6 10 16 10 C15.67 10.99 15.34 11.98 15 13 C12.03 12.67 9.06 12.34 6 12 C6.11389875 13.79240663 6.24147687 15.58394835 6.375 17.375 C6.44460937 18.37273437 6.51421875 19.37046875 6.5859375 20.3984375 C6.76363964 23.15508879 6.76363964 23.15508879 9 25 C6.03 25 3.06 25 0 25 C0.66 24.67 1.32 24.34 2 24 C2 16.41 2 8.82 2 1 C1.34 0.67 0.68 0.34 0 0 Z " fill="#5471CD" transform="translate(213,317)"/>
<path d="M0 0 C1.65 0 3.3 0 5 0 C5 7.92 5 15.84 5 24 C7.97 24 10.94 24 14 24 C14 24.33 14 24.66 14 25 C8.72 25 3.44 25 -2 25 C-1.01 24.67 -0.02 24.34 1 24 C0.67 16.08 0.34 8.16 0 0 Z " fill="#4E6CCB" transform="translate(245,317)"/>
<path d="M0 0 C4.29 0 8.58 0 13 0 C15.11964808 4.23929615 15.34377794 6.35899787 15 11 C14.34 11.66 13.68 12.32 13 13 C11.02 13 9.04 13 7 13 C7 9.04 7 5.08 7 1 C4.69 1.33 2.38 1.66 0 2 C0 1.34 0 0.68 0 0 Z " fill="#EBEEF9" transform="translate(373,316)"/>
<path d="M0 0 C4.29 0 8.58 0 13 0 C15.11964808 4.23929615 15.34377794 6.35899787 15 11 C14.34 11.66 13.68 12.32 13 13 C11.02 13 9.04 13 7 13 C7 9.04 7 5.08 7 1 C4.69 1.33 2.38 1.66 0 2 C0 1.34 0 0.68 0 0 Z " fill="#EBEEF9" transform="translate(104,316)"/>
<path d="M0 0 C0.33 0.66 0.66 1.32 1 2 C1.66 2 2.32 2 3 2 C3.13277344 2.62648438 3.26554688 3.25296875 3.40234375 3.8984375 C3.57894531 4.71570313 3.75554687 5.53296875 3.9375 6.375 C4.11152344 7.18710937 4.28554687 7.99921875 4.46484375 8.8359375 C4.92330693 11.029463 4.92330693 11.029463 6 13 C3.36 13 0.72 13 -2 13 C-2.66 16.3 -3.32 19.6 -4 23 C-3.01 23.33 -2.02 23.66 -1 24 C-3.97 24 -6.94 24 -10 24 C-9.01 23.01 -8.02 22.02 -7 21 C-5.96057276 18.70342546 -5.96057276 18.70342546 -5.17578125 16.11328125 C-4.71655273 14.7065918 -4.71655273 14.7065918 -4.24804688 13.27148438 C-3.93931641 12.29501953 -3.63058594 11.31855469 -3.3125 10.3125 C-2.99216797 9.32443359 -2.67183594 8.33636719 -2.34179688 7.31835938 C-1.55302536 4.88140858 -0.77279421 2.44205506 0 0 Z " fill="#5773CE" transform="translate(195,318)"/>
<path d="M0 0 C2.31 0 4.62 0 7 0 C6.01 0.495 6.01 0.495 5 1 C5.08060591 4.62592996 5.19346817 8.25014402 5.3125 11.875 C5.33505859 12.90753906 5.35761719 13.94007813 5.38085938 15.00390625 C5.41630859 15.99003906 5.45175781 16.97617187 5.48828125 17.9921875 C5.51446533 18.90339355 5.54064941 19.81459961 5.56762695 20.75341797 C5.71031006 21.49479004 5.85299316 22.23616211 6 23 C6.99 23.66 7.98 24.32 9 25 C5.04 25 1.08 25 -3 25 C-1.68 24.34 -0.36 23.68 1 23 C0.98839844 22.33355469 0.97679687 21.66710937 0.96484375 20.98046875 C0.89902634 14.25769055 1.27616361 7.682561 2 1 C1.34 0.67 0.68 0.34 0 0 Z " fill="#3E5FC7" transform="translate(175,317)"/>
<path d="M0 0 C-0.33 0.66 -0.66 1.32 -1 2 C-1.66 2 -2.32 2 -3 2 C-3 2.66 -3 3.32 -3 4 C-2.030625 4.268125 -1.06125 4.53625 -0.0625 4.8125 C0.948125 5.204375 1.95875 5.59625 3 6 C3.495 7.485 3.495 7.485 4 9 C1.03065114 8.36332506 -1.38997265 7.35798813 -4.08984375 5.984375 C-9.24854522 3.6455663 -13.95769909 3.34046634 -19.5625 3.25 C-20.47580078 3.22035156 -21.38910156 3.19070312 -22.33007812 3.16015625 C-24.55346923 3.0903115 -26.77586468 3.03720255 -29 3 C-29 2.34 -29 1.68 -29 1 C-28.31897217 0.97494385 -27.63794434 0.9498877 -26.9362793 0.92407227 C-23.85316245 0.80809048 -20.77034954 0.68537384 -17.6875 0.5625 C-16.61564453 0.52318359 -15.54378906 0.48386719 -14.43945312 0.44335938 C-13.41142578 0.40146484 -12.38339844 0.35957031 -11.32421875 0.31640625 C-10.37635498 0.27974854 -9.42849121 0.24309082 -8.4519043 0.20532227 C-1.20467929 -0.40155976 -1.20467929 -0.40155976 0 0 Z " fill="#5672CE" transform="translate(260,224)"/>
<path d="M0 0 C2.31 0 4.62 0 7 0 C6.98952637 0.68626465 6.97905273 1.3725293 6.96826172 2.07958984 C6.92678126 5.17802289 6.90069931 8.27639761 6.875 11.375 C6.85824219 12.45523437 6.84148437 13.53546875 6.82421875 14.6484375 C6.81777344 15.6796875 6.81132812 16.7109375 6.8046875 17.7734375 C6.79421387 18.72653809 6.78374023 19.67963867 6.77294922 20.66162109 C6.76868133 23.1923213 6.76868133 23.1923213 9 25 C6.03 25 3.06 25 0 25 C0.66 24.34 1.32 23.68 2 23 C2.37051993 20.6754661 2.37051993 20.6754661 2.4140625 17.9921875 C2.45273437 17.00605469 2.49140625 16.01992188 2.53125 15.00390625 C2.5621875 13.97136719 2.593125 12.93882812 2.625 11.875 C2.66367187 10.83472656 2.70234375 9.79445313 2.7421875 8.72265625 C2.83664766 6.14861689 2.92221214 3.57458845 3 1 C2.01 0.67 1.02 0.34 0 0 Z " fill="#3F5FC7" transform="translate(335,317)"/>
<path d="M0 0 C-0.33 0.845625 -0.66 1.69125 -1 2.5625 C-2.47744684 7.64122353 -2.64955246 11.36065331 -0.6875 16.3125 C0.87948487 19.21553887 0.87948487 19.21553887 4 21 C6.32387947 21.39387788 8.65793749 21.73486085 11 22 C11 22.33 11 22.66 11 23 C6.22996598 23.38160272 2.90534008 23.4609004 -1.4375 21.25 C-4.50814437 18.55382446 -5.7689107 16.65255719 -6.3359375 12.59765625 C-6.40321864 8.2311105 -6.41908673 5.69847788 -4.125 1.875 C-2 0 -2 0 0 0 Z " fill="#4665C9" transform="translate(280,319)"/>
<path d="M0 0 C3.09184203 0.07361529 5.27792394 0.42591701 7.734375 2.37890625 C10.638179 5.46938337 11.90090007 7.361356 12.5625 11.625 C11.73935695 16.56385833 10.10083958 18.9542024 6.5 22.375 C5.675 22.91125 4.85 23.4475 4 24 C3.01 23.67 2.02 23.34 1 23 C2.2065625 22.1028125 2.2065625 22.1028125 3.4375 21.1875 C6.22327984 19.19052724 6.22327984 19.19052724 7 16 C7.34531267 10.64765358 7.47574585 7.34468232 4 3 C1.93045153 1.21655822 1.93045153 1.21655822 0 0 Z " fill="#4A69CA" transform="translate(258,317)"/>
<path d="M0 0 C1.85044922 0.02030273 1.85044922 0.02030273 3.73828125 0.04101562 C6.74266604 0.07595033 9.74608409 0.12499855 12.75 0.1875 C12.75 0.5175 12.75 0.8475 12.75 1.1875 C11.98969482 1.23237549 11.22938965 1.27725098 10.44604492 1.32348633 C6.94235687 1.53709665 3.44004588 1.76844179 -0.0625 2 C-1.25810547 2.07025391 -2.45371094 2.14050781 -3.68554688 2.21289062 C-11.20450267 2.72508107 -18.07190323 3.87503749 -25.25 6.1875 C-25.58 5.1975 -25.91 4.2075 -26.25 3.1875 C-17.36219761 0.46905837 -9.26046594 -0.1960685 0 0 Z " fill="#647ED2" transform="translate(225.25,131.8125)"/>
<path d="M0 0 C2.5757542 0.16079502 5.01716086 0.43392911 7.5625 0.8125 C13.89312309 1.66479134 20.18320267 2.2844536 26.5625 2.625 C27.67830444 2.68457886 27.67830444 2.68457886 28.81665039 2.74536133 C30.54422799 2.83432738 32.27208623 2.91782137 34 3 C34 3.33 34 3.66 34 4 C21.45490374 5.03500216 10.22082591 5.32271304 -2 2 C-1.34 1.34 -0.68 0.68 0 0 Z " fill="#5B77CF" transform="translate(223,283)"/>
<path d="M0 0 C2.60623142 0.35219343 4.60789115 0.76473469 6.875 2.125 C8.67626472 5.12710787 7.68453372 7.70179208 7 11 C6.01 11.33 5.02 11.66 4 12 C3 10 3 10 3.125 6.5625 C3.34938116 3.06165111 3.34938116 3.06165111 1.5 1.0625 C1.005 0.711875 0.51 0.36125 0 0 Z " fill="#4D6BCB" transform="translate(384,317)"/>
<path d="M0 0 C2.60623142 0.35219343 4.60789115 0.76473469 6.875 2.125 C8.67626472 5.12710787 7.68453372 7.70179208 7 11 C6.01 11.33 5.02 11.66 4 12 C3 10 3 10 3.125 6.5625 C3.34938116 3.06165111 3.34938116 3.06165111 1.5 1.0625 C1.005 0.711875 0.51 0.36125 0 0 Z " fill="#4D6BCB" transform="translate(115,317)"/>
<path d="M0 0 C0.66 0 1.32 0 2 0 C2.66 2.64 3.32 5.28 4 8 C2.02 8 0.04 8 -2 8 C-1.34 5.36 -0.68 2.72 0 0 Z " fill="#E0E5F6" transform="translate(357,321)"/>
<path d="M0 0 C2.5654594 2.5654594 2.54046087 4.47686668 3 8 C1.35 8 -0.3 8 -2 8 C-1.125 1.125 -1.125 1.125 0 0 Z " fill="#E7EBF8" transform="translate(140,321)"/>
<path d="M0 0 C3 3.625 3 3.625 3 7 C1.02 7 -0.96 7 -3 7 C-1.125 1.125 -1.125 1.125 0 0 Z " fill="#E6EAF8" transform="translate(197,322)"/>
<path d="M0 0 C0 0.66 0 1.32 0 2 C-4.95 4.475 -4.95 4.475 -10 7 C-10 5.68 -10 4.36 -10 3 C-3.375 0 -3.375 0 0 0 Z " fill="#5A75CF" transform="translate(365,289)"/>
<path d="M0 0 C2.31 0 4.62 0 7 0 C6.67 0.66 6.34 1.32 6 2 C5.7677354 4.71262116 5.58063765 7.40773126 5.4375 10.125 C5.39431641 10.87910156 5.35113281 11.63320313 5.30664062 12.41015625 C5.2005168 14.27321888 5.09974999 16.13658524 5 18 C4.67 18 4.34 18 4 18 C3.96261719 16.86820312 3.92523438 15.73640625 3.88671875 14.5703125 C3.82106918 13.08850795 3.75462149 11.60673861 3.6875 10.125 C3.66494141 9.37863281 3.64238281 8.63226563 3.61914062 7.86328125 C3.52188055 5.900396 3.26957706 3.94671678 3 2 C2.01 1.34 1.02 0.68 0 0 Z " fill="#4161C7" transform="translate(324,317)"/>
<path d="M0 0 C0.99 0 1.98 0 3 0 C3 0.66 3 1.32 3 2 C3.969375 2.268125 4.93875 2.53625 5.9375 2.8125 C7.4534375 3.4003125 7.4534375 3.4003125 9 4 C9.33 4.99 9.66 5.98 10 7 C6.33118845 6.29445932 3.29549466 4.72264494 0 3 C0 2.01 0 1.02 0 0 Z " fill="#617BD1" transform="translate(254,226)"/>
<path d="M0 0 C2 3 2 3 1.625 5.1875 C1.41875 5.785625 1.2125 6.38375 1 7 C2.32 7.33 3.64 7.66 5 8 C2.03 8 -0.94 8 -4 8 C-3.34 7.67 -2.68 7.34 -2 7 C-1.26924352 4.6859378 -0.59861742 2.35171131 0 0 Z " fill="#5370CD" transform="translate(133,334)"/>
<path d="M0 0 C2.0625 -0.375 2.0625 -0.375 5 0 C7.53572282 1.79177109 9.77174488 3.84238121 12 6 C8.55639368 6 7.25204608 5.20408468 4.3125 3.5 C3.50425781 3.0359375 2.69601562 2.571875 1.86328125 2.09375 C1.24839844 1.7328125 0.63351562 1.371875 0 1 C0 0.67 0 0.34 0 0 Z " fill="#5975CE" transform="translate(374,287)"/>
<path d="M0 0 C0.66 0.99 1.32 1.98 2 3 C2.99 3.66 3.98 4.32 5 5 C2.03 5 -0.94 5 -4 5 C-2.68 3.35 -1.36 1.7 0 0 Z " fill="#4B69CA" transform="translate(350,337)"/>
</svg>
